<svg xmlns="http://www.w3.org/2000/svg" xmlns:xlink="http://www.w3.org/1999/xlink" preserveAspectRatio="xMidYMid" width="63.031" height="55.125" viewBox="0 0 63.031 55.125">
  <defs>
    <style>
      .cls-1 {
        fill: #000;
        filter: url(#color-overlay-1);
        fill-rule: evenodd;
      }
    </style>

    <filter id="color-overlay-1" filterUnits="userSpaceOnUse">
      <feFlood flood-color="#fff"/>
      <feComposite operator="in" in2="SourceGraphic"/>
      <feBlend in2="SourceGraphic" result="solidFill"/>
    </filter>
  </defs>
  <path d="M52.529,55.128 L57.781,45.939 L63.033,55.128 L52.529,55.128 ZM45.959,45.172 L56.467,45.172 L51.213,54.359 L45.959,45.172 ZM51.213,34.451 L56.467,43.641 L45.959,43.641 L51.213,34.451 ZM39.394,33.686 L49.899,33.686 L44.646,42.874 L39.394,33.686 ZM44.646,22.967 L49.899,32.154 L39.394,32.154 L44.646,22.967 ZM32.824,22.202 L43.332,22.202 L38.078,31.390 L32.824,22.202 ZM38.078,11.480 L43.332,20.671 L32.824,20.671 L38.078,11.480 ZM26.256,10.713 L36.764,10.713 L31.510,19.905 L26.256,10.713 ZM31.510,-0.006 L36.764,9.184 L26.256,9.184 L31.510,-0.006 ZM19.688,20.671 L24.942,11.480 L30.196,20.671 L19.688,20.671 ZM13.121,32.154 L18.374,22.967 L23.627,32.154 L13.121,32.154 ZM6.553,43.641 L11.807,34.451 L17.060,43.641 L6.553,43.641 ZM-0.013,55.128 L5.238,45.939 L10.492,55.128 L-0.013,55.128 ZM17.060,45.172 L11.807,54.359 L6.553,45.172 L17.060,45.172 ZM23.627,33.686 L18.374,42.874 L13.121,33.686 L23.627,33.686 ZM30.196,22.202 L24.942,31.390 L19.688,22.202 L30.196,22.202 ZM36.764,55.128 L26.256,55.128 L31.510,45.939 L36.764,55.128 ZM43.332,45.172 L38.078,54.359 L32.824,45.172 L43.332,45.172 ZM49.899,55.128 L39.394,55.128 L44.646,45.939 L49.899,55.128 Z" class="cls-1"/>
</svg>
